#!OML:ASF F:\VICON\USERDATA\INSTALL\rory3\rory3.ASF
:FULLY-SPECIFIED
:DEGREES
2010
root -1.88859 18.7496 3.23031 -1.26741 -45.8645 2.40979
lowerback 3.59121 0.992182 -0.562582
upperback 1.24916 1.28334 -1.02638
thorax -0.720551 0.63827 -0.789109
lowerneck -0.918592 -1.37835 -6.24157
upperneck 6.37406 -1.9718 5.00226
head 2.33298 -1.01713 2.6797
rclavicle 8.98631e-014 2.78299e-015
rhumerus -8.78385 -3.06537 -63.3457
rradius 87.1676
rwrist 7.84926
rhand -30.9905 -7.91757
rfingers 7.12502
rthumb -4.27395 -37.8544
lclavicle 8.98631e-014 2.78299e-015
lhumerus -31.2014 -21.9315 87.4756
lradius 120.936
lwrist 7.16879
lhand -0.290775 25.9028
lfingers 7.12502
lthumb 25.3118 54.2433
rfemur -3.68548 15.1235 21.0473
rtibia 26.7921
rfoot -20.3945 -10.9533
rtoes -0.418087
lfemur -13.7052 -10.1547 -12.1683
ltibia 24.206
lfoot -5.94034 19.7662
ltoes -11.7411
2011
root -1.89904 18.7523 3.27463 -1.12257 -45.6693 2.19708
lowerback 3.29848 0.953002 -0.680006
upperback 1.1834 1.23073 -1.06191
thorax -0.626502 0.612144 -0.752789
lowerneck -0.976564 -1.38362 -6.28007
upperneck 6.74245 -1.98976 5.05183
head 2.46936 -1.02823 2.70671
rclavicle 4.51987e-014 1.39149e-015
rhumerus -8.35157 -1.73228 -63.6068
rradius 85.837
rwrist 8.12467
rhand -32.3176 -8.53184
rfingers 7.12502
rthumb -5.55534 -38.439
lclavicle 4.51987e-014 1.39149e-015
lhumerus -30.6013 -22.3972 87.4565
lradius 121.116
lwrist 7.83618
lhand -0.951966 25.9586
lfingers 7.12502
lthumb 24.6782 54.3872
rfemur -3.5058 15.0171 21.1633
rtibia 26.7597
rfoot -20.3061 -11.029
rtoes -0.960185
lfemur -13.4819 -10.3401 -12.0585
ltibia 23.9935
lfoot -6.83854 19.4588
ltoes -8.9537
2012
root -1.90534 18.7554 3.31905 -0.801088 -45.4868 1.76978
lowerback 3.03431 0.934785 -0.559878
upperback 1.06378 1.21316 -1.0855
thorax -0.598468 0.604001 -0.84002
lowerneck -0.953862 -1.42185 -6.29544
upperneck 7.11821 -2.0581 5.09632
head 2.59678 -1.06518 2.72653
rclavicle -4.18566e-014 2.18663e-015
rhumerus -7.99482 -0.454608 -63.9337
rradius 84.3673
rwrist 8.82034
rhand -33.0663 -8.97439
rfingers 7.12502
rthumb -6.27823 -38.8614
lclavicle -4.18566e-014 2.18663e-015
lhumerus -30.0256 -23.0632 87.5501
lradius 121.303
lwrist 8.56894
lhand -1.79516 26.0982
lfingers 7.12502
lthumb 23.8698 54.6349
rfemur -3.34694 14.9038 21.4211
rtibia 26.6806
rfoot -20.1377 -11.1135
rtoes -1.76676
lfemur -13.3319 -10.4376 -11.7657
ltibia 23.848
lfoot -7.47449 19.1521
ltoes -7.31141
2013
root -1.91037 18.7597 3.36453 -0.655868 -45.3292 1.55905
lowerback 2.73694 0.918144 -0.557184
upperback 0.984177 1.19394 -1.16208
thorax -0.51216 0.594702 -0.91474
lowerneck -0.968339 -1.46385 -6.24483
upperneck 7.47229 -2.12152 5.00474
head 2.7198 -1.10073 2.68727
rclavicle -1.5791e-014 3.77691e-015
rhumerus -7.6522 0.923223 -64.2737
rradius 82.8928
rwrist 9.56084
rhand -33.4765 -9.79937
rfingers 7.12502
rthumb -6.67422 -39.6742
lclavicle -1.5791e-014 3.77691e-015
lhumerus -29.3801 -23.7014 87.5581
lradius 121.54
lwrist 9.17389
lhand -2.5374 26.0269
lfingers 7.12502
lthumb 23.1579 54.6549
rfemur -3.13263 14.921 21.5152
rtibia 26.5563
rfoot -20.0156 -11.2053
rtoes -2.00665
lfemur -13.1629 -10.6004 -11.6768
ltibia 23.7835
lfoot -7.43302 19.0635
ltoes -8.62449
2014
root -1.91348 18.7624 3.4124 -0.67958 -45.2783 1.46777
lowerback 2.47287 0.937855 -0.640287
upperback 0.974139 1.2213 -1.23
thorax -0.374622 0.608376 -0.933809
lowerneck -1.00827 -1.47655 -6.3884
upperneck 7.76705 -2.14643 5.07518
head 2.83333 -1.1175 2.74067
rclavicle 2.50966e-015 -3.57812e-015
rhumerus -7.24578 2.40162 -64.5347
rradius 81.4198
rwrist 10.3777
rhand -33.2708 -9.85037
rfingers 7.12502
rthumb -6.47561 -39.7314
lclavicle 2.50966e-015 -3.57812e-015
lhumerus -28.5499 -24.1919 87.5092
lradius 121.763
lwrist 9.62078
lhand -2.77216 25.9803
lfingers 7.12502
lthumb 22.9326 54.6365
rfemur -2.82043 14.958 21.5112
rtibia 26.414
rfoot -19.9618 -11.1509
rtoes -2.02123
lfemur -12.9249 -10.8181 -11.7101
ltibia 23.7962
lfoot -7.42728 19.0037
ltoes -9.92903
2015
root -1.9119 18.7647 3.45871 -0.502104 -45.2516 1.16943
lowerback 2.25339 0.982966 -0.566083
upperback 0.915254 1.28577 -1.2557
thorax -0.309122 0.64098 -0.999848
lowerneck -1.08574 -1.52871 -6.48921
upperneck 8.13153 -2.22754 5.16188
head 2.98161 -1.1608 2.79097
rclavicle -4.1136e-014 3.18055e-015
rhumerus -6.84508 3.89506 -64.8221
rradius 79.8704
rwrist 11.5451
rhand -32.0412 -8.61808
rfingers 7.12502
rthumb -5.2885 -38.5321
lclavicle -4.1136e-014 3.18055e-015
lhumerus -27.666 -24.6824 87.393
lradius 121.929
lwrist 9.91777
lhand -2.6264 25.5662
lfingers 7.12502
lthumb 23.0725 54.2049
rfemur -2.61844 14.9835 21.6413
rtibia 26.3035
rfoot -19.8903 -11.0639
rtoes -2.55278
lfemur -12.7601 -11.046 -11.5489
ltibia 23.8024
lfoot -7.92882 18.7608
ltoes -8.68604
2016
root -1.90566 18.7668 3.50044 -0.172573 -45.1811 0.710238
lowerback 2.07753 1.00511 -0.371505
upperback 0.849897 1.32128 -1.25908
thorax -0.27265 0.659355 -1.11043
lowerneck -1.22106 -1.58167 -6.47226
upperneck 8.45289 -2.30132 5.14637
head 3.12146 -1.19861 2.78361
rclavicle -2.29348e-014 7.55382e-015
rhumerus -6.40916 5.49491 -65.1589
rradius 78.2402
rwrist 12.567
rhand -31.1301 -7.73304
rfingers 7.12502
rthumb -4.40873 -37.6672
lclavicle -2.29348e-014 7.55382e-015
lhumerus -26.7001 -25.1164 87.1303
lradius 122.026
lwrist 9.95401
lhand -1.87561 24.3799
lfingers 7.12502
lthumb 23.7927 52.9267
rfemur -2.51291 14.9753 21.8865
rtibia 26.2121
rfoot -19.7684 -11.0411
rtoes -3.16424
lfemur -12.6711 -11.0687 -11.2546
ltibia 23.8132
lfoot -8.23508 18.41
ltoes -8.10757
